<svg id="fill" height="512" viewBox="0 0 64 64" width="512" xmlns="http://www.w3.org/2000/svg"><g fill="#f8cc5c"><circle cx="32" cy="19" r="9"/><path d="m25.451 3.104h2v5h-2z" transform="matrix(.924 -.383 .383 .924 -.131 10.549)"/><path d="m17.604 10.951h2v5h-2z" transform="matrix(.383 -.924 .924 .383 -.943 25.491)"/><path d="m42.896 12.451h5v2h-5z" transform="matrix(.924 -.383 .383 .924 -1.691 18.403)"/><path d="m35.049 4.604h5v2h-5z" transform="matrix(.383 -.924 .924 .383 17.998 38.147)"/></g><path d="m33 25h-2v-2a3 3 0 0 1 3-3 1 1 0 0 0 1-1v-.893a1.085 1.085 0 0 0 -.825-1.093 1 1 0 0 0 -1.175.986 1 1 0 0 1 -2 0 1 1 0 0 0 -2 0h-2a3 3 0 0 1 5-2.235l.058-.051a3 3 0 0 1 2.44-.673 3.082 3.082 0 0 1 2.502 3.066v.893a3 3 0 0 1 -3 3 1 1 0 0 0 -1 1z" fill="#fff"/><path d="m49 37v-12h-34a6 6 0 0 0 0 12h7a6 6 0 0 0 0 12h-4a6 6 0 0 0 0 12h34v-12h4v-12z" fill="#b1a6d8"/><path d="m54 37h-9a6 6 0 0 1 -6-6 6 6 0 0 1 6-6h9a8.485 8.485 0 0 0 0 12z" fill="#f8f8fe"/><path d="m61 49h-9a6 6 0 0 1 -6-6 6 6 0 0 1 6-6h9a8.485 8.485 0 0 0 0 12z" fill="#f8f8fe"/><path d="m37 37a6 6 0 0 1 -6-6 6 6 0 0 1 6-6h-16a6 6 0 0 0 -6 6 6 6 0 0 0 6 6z" fill="#376de3"/><path d="m39 61a6 6 0 0 1 -6-6 6 6 0 0 1 6-6h-16a6 6 0 0 0 -6 6 6 6 0 0 0 6 6z" fill="#2298d1"/><path d="m45 37a6 6 0 0 0 -6 6 6 6 0 0 0 6 6h-4a6 6 0 0 1 -6-6 6 6 0 0 1 6-6z" fill="#e3e3ff"/><path d="m57 61h-9a6 6 0 0 1 -6-6 6 6 0 0 1 6-6h9a8.485 8.485 0 0 0 0 12z" fill="#f8f8fe"/><path d="m31 55-3-3-3 3v-18h6z" fill="#ec5043"/><path d="m15 38h2.11a6.975 6.975 0 0 0 .06 10.054 7 7 0 0 0 .83 13.946h39a1 1 0 0 0 .707-1.707 7.489 7.489 0 0 1 -.265-10.293h3.558a1 1 0 0 0 .707-1.707 7.5 7.5 0 0 1 0-10.586 1 1 0 0 0 -.707-1.707h-6.558a7.489 7.489 0 0 1 .265-10.293 1 1 0 0 0 -.707-1.707h-13.347a10 10 0 1 0 -17.3 0h-8.353a7 7 0 0 0 0 14zm2 5a5.006 5.006 0 0 1 5-5h2v10h-2a5.006 5.006 0 0 1 -5-5zm1 17a5 5 0 0 1 0-10h.11a6.979 6.979 0 0 0 0 10zm5 0a5 5 0 0 1 0-10h1v5a1 1 0 0 0 1.707.707l2.293-2.293 2.293 2.293a1 1 0 0 0 1.707-.707v-5h2.11a6.979 6.979 0 0 0 0 10zm3-7.414v-14.586h4v14.586l-1.293-1.293a1 1 0 0 0 -1.414 0zm12-9.586a6.974 6.974 0 0 0 2.009 4.9 5 5 0 0 1 0-9.8 6.974 6.974 0 0 0 -2.009 4.9zm7-5h2.11a6.979 6.979 0 0 0 0 10h-2.11a5 5 0 0 1 0-10zm-11 5a6.977 6.977 0 0 0 2.11 5h-4.11v-10h4.11a6.977 6.977 0 0 0 -2.11 5zm5 17a5 5 0 0 1 0-10h4.11a6.979 6.979 0 0 0 0 10zm15.938 0h-6.938a5 5 0 0 1 0-10h6.938a9.519 9.519 0 0 0 0 10zm4-22a9.519 9.519 0 0 0 0 10h-6.938a5 5 0 0 1 0-10zm-13.938-12h6.938a9.519 9.519 0 0 0 0 10h-6.938a5 5 0 0 1 0-10zm-7 5a6.977 6.977 0 0 0 2.11 5h-3.11a5 5 0 0 1 0-10h3.11a6.977 6.977 0 0 0 -2.11 5zm-6-20a7.991 7.991 0 0 1 6.235 13h-5.235v-1a1 1 0 0 1 1-1 3 3 0 0 0 3-3v-.893a3.082 3.082 0 0 0 -2.5-3.066 3 3 0 0 0 -2.44.673l-.06.051a3 3 0 0 0 -5 2.235h2a1 1 0 0 1 2 0 1 1 0 0 0 2 0 1 1 0 0 1 1.175-.986 1.085 1.085 0 0 1 .825 1.093v.893a1 1 0 0 1 -1 1 3 3 0 0 0 -3 3v1h-5.235a7.991 7.991 0 0 1 6.235-13zm-11 15h11.11a6.979 6.979 0 0 0 0 10h-11.11a5 5 0 0 1 0-10zm-6 0h1.11a6.979 6.979 0 0 0 0 10h-1.11a5 5 0 0 1 0-10z"/><path d="m25.451 3.104h2v5h-2z" transform="matrix(.924 -.383 .383 .924 -.131 10.549)"/><path d="m17.604 10.951h2v5h-2z" transform="matrix(.383 -.924 .924 .383 -.943 25.491)"/><path d="m42.896 12.451h5v2h-5z" transform="matrix(.924 -.383 .383 .924 -1.691 18.403)"/><path d="m35.049 4.604h5v2h-5z" transform="matrix(.383 -.924 .924 .383 17.998 38.147)"/></svg>